<?xml version="1.0" encoding="UTF-8" standalone="no"?><!-- Generator: Gravit.io --><svg xmlns="http://www.w3.org/2000/svg" xmlns:xlink="http://www.w3.org/1999/xlink" style="isolation:isolate" viewBox="0 0 100 100" width="100pt" height="100pt"><defs><clipPath id="_clipPath_USdU2HuNpz9t8jJ9vurrWOEtlLMjjGNy"><rect width="100" height="100"/></clipPath></defs><g clip-path="url(#_clipPath_USdU2HuNpz9t8jJ9vurrWOEtlLMjjGNy)"><clipPath id="_clipPath_GgdW4vefCDPvJyxzSZllGJsozinJTIHT"><rect x="25" y="30.634" width="50" height="38.732" transform="matrix(1,0,0,1,0,0)" fill="rgb(255,255,255)"/></clipPath><g clip-path="url(#_clipPath_GgdW4vefCDPvJyxzSZllGJsozinJTIHT)"><g><path d=" M 67.327 34.083 C 64.14 32.621 60.723 31.543 57.15 30.926 C 57.085 30.914 57.02 30.944 56.986 31.004 C 56.547 31.785 56.06 32.805 55.719 33.607 C 51.876 33.031 48.052 33.031 44.288 33.607 C 43.947 32.787 43.443 31.785 43.001 31.004 C 42.968 30.946 42.903 30.916 42.838 30.926 C 39.266 31.541 35.849 32.619 32.66 34.083 C 32.633 34.095 32.609 34.115 32.593 34.14 C 26.111 43.825 24.336 53.271 25.207 62.6 C 25.211 62.645 25.236 62.689 25.272 62.717 C 29.548 65.857 33.691 67.764 37.757 69.028 C 37.822 69.048 37.891 69.024 37.932 68.97 C 38.894 67.657 39.751 66.272 40.486 64.816 C 40.53 64.73 40.488 64.629 40.4 64.595 C 39.04 64.08 37.745 63.451 36.499 62.736 C 36.401 62.679 36.393 62.538 36.484 62.471 C 36.746 62.274 37.008 62.07 37.258 61.863 C 37.304 61.826 37.367 61.818 37.42 61.842 C 45.603 65.578 54.462 65.578 62.548 61.842 C 62.601 61.816 62.664 61.824 62.711 61.861 C 62.962 62.068 63.224 62.274 63.488 62.471 C 63.579 62.538 63.573 62.679 63.474 62.736 C 62.229 63.465 60.934 64.08 59.572 64.594 C 59.483 64.627 59.444 64.73 59.487 64.816 C 60.238 66.27 61.095 67.655 62.039 68.968 C 62.079 69.024 62.15 69.048 62.215 69.028 C 66.3 67.764 70.443 65.857 74.72 62.717 C 74.757 62.689 74.781 62.647 74.785 62.602 C 75.827 51.816 73.039 42.448 67.392 34.142 C 67.378 34.115 67.355 34.095 67.327 34.083 Z  M 41.708 56.919 C 39.245 56.919 37.215 54.657 37.215 51.88 C 37.215 49.102 39.205 46.84 41.708 46.84 C 44.231 46.84 46.241 49.122 46.202 51.88 C 46.202 54.657 44.211 56.919 41.708 56.919 Z  M 58.322 56.919 C 55.859 56.919 53.829 54.657 53.829 51.88 C 53.829 49.102 55.819 46.84 58.322 46.84 C 60.845 46.84 62.855 49.122 62.816 51.88 C 62.816 54.657 60.845 56.919 58.322 56.919 Z " fill="rgb(255,255,255)"/></g></g></g></svg>